<?xml version="1.0" encoding="UTF-8"?>
<svg id="Layer_2" data-name="Layer 2" xmlns="http://www.w3.org/2000/svg" viewBox="0 0 89.79 63.89">
  <defs>
    <style>
      .cls-1 {
        fill: #635330;
      }

      .cls-2 {
        fill: #39928c;
        stroke-width: .75px;
      }

      .cls-2, .cls-3 {
        stroke: #414042;
        stroke-miterlimit: 10;
      }

      .cls-4 {
        fill: #fdfdfd;
      }

      .cls-5 {
        fill: #1e2321;
      }

      .cls-3 {
        fill: #4faf4b;
        stroke-width: .5px;
      }

      .cls-6 {
        fill: #f6f1c2;
      }

      .cls-7 {
        fill: #edcb61;
      }
    </style>
  </defs>
  <g id="Layer_1-2" data-name="Layer 1">
    <g>
      <path class="cls-2" d="M49.82,28.84c-5.17-.06-10.35-.13-15.52-.19-.99-.01-1.78,.31-2.52,1.05-3.97,3.93-7.99,7.81-11.74,12.5,3.16,.18,6.33,.61,9.48,.49,16.69-.66,33.38-.12,50.07-.27,2.53-.02,5.07,.02,7.6,.02,.85,0,1.76-.13,2.13,.91,.3,.84-.26,1.38-.79,1.91-5.71,5.74-11.42,11.49-17.13,17.23-.78,.79-1.68,1.56-2.67,.45-.88-.99,.03-1.75,.68-2.41,4.61-4.65,9.24-9.29,13.86-13.93,.27-.27,.49-.6,1.15-1.4-7.78,0-15,0-22.22,0-.93,0-1.49,.65-2.09,1.26-5.12,5.18-10.27,10.33-15.41,15.5-.15,.15-.27,.33-.44,.46-.82,.62-1.67,1.65-2.69,.49-.85-.96-.03-1.72,.66-2.42,1.64-1.64,3.26-3.3,4.89-4.95,2.83-2.85,5.67-5.68,8.48-8.53,1.12-1.14,.94-1.85-.74-1.85-6.55-.02-13.1-.01-19.66-.02-1.22,0-1.82,.89-2.56,1.64-5.05,5.1-10.12,10.18-15.22,15.23-.76,.76-1.64,2.23-2.84,1.1-1.33-1.25,.05-2.23,.93-3.12,4.67-4.69,9.34-9.39,14.21-14.27-1.86-1.04-3.65-.46-5.33-.54-2.53-.11-5.07-.02-7.61-.02-.87,0-1.76-.04-2.18-.95-.46-.99,.34-1.54,.93-2.13,4.92-4.93,9.88-9.83,14.75-14.82,1.17-1.2,2.44-1.42,3.99-1.41,5.17,.03,10.35-.06,15.52-.1,0,1.03,.01,2.06,.02,3.08Z"/>
      <path class="cls-5" d="M49.82,28.84c0-1.03-.01-2.06-.02-3.08,0-3.7,.16-7.4-.02-11.09-.16-3.24,1.03-5.56,3.89-6.94,1.48-.71,2.32-1.55,2.19-3.36-.11-1.45,.71-2.58,2.15-3.19,3.9-1.66,7.81-1.48,11.7-.04,1.38,.51,2.39,1.64,2.24,3.15-.2,1.95,.72,2.84,2.32,3.56,2.71,1.23,3.74,3.43,3.66,6.4-.13,4.86-.2,9.73,0,14.58,.16,3.73-1.57,6.1-4.71,7.49-6.2,2.73-12.51,2.79-18.72-.02-3.12-1.41-5.1-3.73-4.69-7.46ZM69.18,4.56c-1.99-2.57-8.56-2.68-10.47-.18-.04,.06,.02,.2,.04,.3,.01,.35,.03,.69,.04,1.04-.81,.9-.38,2.06-.65,3.07v.09c-4.65,.8-5.77,2.07-5.77,6.55,0,4.44,.11,8.89-.05,13.32-.1,2.63,1.06,4.22,3.28,5.21,5.63,2.51,11.27,2.45,16.86-.14,1.97-.91,3.02-2.41,2.96-4.76-.12-4.33-.03-8.67-.04-13,0-5.01-.4-5.55-5.22-7.21-.03-.58,.11-1.23-.62-1.53-.03-.44-.05-.88-.08-1.33,.96-.69,.47-1.09-.28-1.44Z"/>
      <path class="cls-3" d="M6.91,59.21c.78-.63,1.29-1.14,1.89-1.51,.73-.45,1.5-.29,1.95,.41,.62,.96-.57,.81-.88,1.22-1.08,1.47-1.81,2.92-4.26,3.1-3.16,.23-3.35-2.8-5.27-3.83-.47-.25,.97-1.3,1.92-1.01,1.19,.36,2.34,.63,1.68-1.16-.31-.85-.62-1.31,.39-1.61,.93-.27,1.81,.09,2.1,.95,.33,.97,.31,2.06,.48,3.44Zm-2.89-.78c-.07-.12-.14-.25-.21-.38-.06,.07-.19,.15-.18,.2,.03,.14,.12,.27,.18,.4,.06-.07,.13-.13,.2-.21Z"/>
      <path class="cls-3" d="M30.73,58.57c2.43-1.09-1.87-3.26,1.08-3.62,2.84-.35,1.71,2.49,2.32,3.99,1.02,.16,1-1.15,1.82-1.34,.67-.15,1.29-.16,1.75,.33,.75,.8-.28,.92-.56,1.37-1.3,2.08-2.84,3.39-5.58,3.02-2.39-.32-2.29-3.1-4.21-3.84-.2-.08,.64-.83,1.25-.99,1.11-.28,1.54,.99,2.12,1.07Z"/>
      <path class="cls-3" d="M14.33,51.59c1.05-.37,1.38-1.41,2.37-1.33,.62,.05,1.32-.03,1.55,.75,.28,.91-.59,.55-.92,.79-1.19,.89-1.25,2.59-3.17,3.15-3.58,1.05-4.4-2.31-6.57-3.44-.09-.05-.07-.61,.07-.77,.68-.72,1.53-.61,2.32-.24,1.99,.93,2.06-.12,1.37-1.45-.4-.76-.88-1.24,.24-1.57,.89-.26,1.81-.02,2.14,.84,.36,.95,.39,2.03,.59,3.27Z"/>
      <path class="cls-3" d="M58.59,59.33c0-1.05,.06-1.79-.02-2.5-.07-.65-1.61-1.32-.1-1.92,1.14-.45,2.07,.13,2.38,1.37,.2,.81,.27,1.64,.45,2.73,.76-.52,1.39-1.09,2.13-1.42,.59-.27,1.29-.09,1.65,.53,.41,.7-.29,.85-.69,1.12-1.24,.84-1.37,2.6-3.29,3.08-3.46,.87-4.53-1.98-6.33-3.57-.79-.7,.42-1.11,1.1-1.24,1.31-.26,1.64,1.09,2.72,1.82Z"/>
      <path class="cls-3" d="M65.33,51.34c2.57-1.02-2.18-3.55,1.12-3.85,2.55-.23,1.37,2.52,1.92,3.91,.63,.44,.87-.08,1.22-.45,.85-.89,2.03-1.14,2.75-.18,.93,1.24-.96,.78-1.25,1.55-.84,2.29-2.58,2.96-5,2.64-2.36-.31-2.34-3.08-4.29-3.78-.22-.08,.46-.78,.98-.92,1.22-.34,1.88,.63,2.54,1.08Z"/>
      <path class="cls-3" d="M41.3,51.86c1.52-.98,2.65-2.49,4.48-.66-2.42,.73-2.44,3.98-5.87,3.88-3.36-.09-3.02-3.33-5.42-3.87,.97-1.17,1.84-1.14,2.55-.7,1.77,1.09,2.14,.32,1.54-1.2-.34-.85-.97-1.52,.33-1.83,1.03-.24,1.87,.25,2.08,1.38,.15,.82,.18,1.66,.31,3Z"/>
      <path class="cls-6" d="M70.16,8.86c4.82,1.66,5.21,2.2,5.22,7.21,0,4.34-.08,8.67,.04,13,.07,2.35-.99,3.85-2.96,4.76-5.58,2.59-11.23,2.65-16.86,.14-2.22-.99-3.38-2.58-3.28-5.21,.16-4.43,.05-8.88,.05-13.32,0-4.48,1.12-5.75,5.78-6.55,4.01,2.61,8.01,2.13,12.01-.03Z"/>
      <path class="cls-7" d="M58.14,8.8c.26-1.01-.16-2.17,.65-3.07,3.52,1.46,7.1,.72,10.68,.28,.03,.44,.05,.88,.08,1.33-.33,1.56-1.6,1.67-2.84,1.91-2.9,.56-5.72-.11-8.56-.44Z"/>
      <path class="cls-7" d="M58.75,4.69c-.02-.1-.08-.25-.04-.3,1.91-2.51,8.48-2.39,10.47,.18-3.46,1.27-6.94,1.22-10.43,.13Z"/>
      <path class="cls-1" d="M58.14,8.8c2.84,.33,5.66,1,8.56,.44,1.24-.24,2.51-.35,2.84-1.91,.73,.3,.6,.95,.62,1.53-4,2.16-8,2.64-12.01,.03,0,0,0-.09,0-.09Z"/>
      <path class="cls-1" d="M58.75,4.69c3.49,1.09,6.97,1.14,10.43-.13,.75,.35,1.24,.75,.28,1.44-3.57,.44-7.15,1.18-10.68-.28-.01-.35-.03-.69-.04-1.04Z"/>
      <path class="cls-4" d="M4.02,58.43c-.08,.08-.14,.15-.2,.21-.07-.13-.15-.26-.18-.4-.01-.05,.11-.13,.18-.2,.07,.13,.14,.26,.21,.38Z"/>
    </g>
  </g>
</svg>