<?xml version="1.0" encoding="UTF-8"?>
<svg id="Layer_2" data-name="Layer 2" xmlns="http://www.w3.org/2000/svg" viewBox="0 0 89.92 52.28">
  <defs>
    <style>
      .cls-1 {
        fill: #a9d8e3;
      }

      .cls-2 {
        fill: #57aebd;
      }

      .cls-3 {
        fill: #222526;
      }

      .cls-4 {
        fill: #92c97f;
      }

      .cls-5 {
        fill: #abddec;
      }

      .cls-6 {
        fill: #1e2321;
      }

      .cls-7 {
        fill: #98c58f;
      }

      .cls-8 {
        fill: #2d2d2d;
      }

      .cls-9 {
        fill: #4faf4b;
      }
    </style>
  </defs>
  <g id="Layer_1-2" data-name="Layer 1">
    <g>
      <path class="cls-6" d="M44.81,52.27c-14.02,0-28.04,0-42.06,0-.51,0-1.02,.04-1.53,0-.61-.04-1.24-.18-1.22-.98,.02-.8,.71-.91,1.28-.95,1.1-.07,2.22,.05,3.31-.07,.81-.09,2.18,.61,2.31-.73,.12-1.34,.83-3.15-.52-4.06-5.25-3.55-4.33-8.32-2.73-13.15,.76-2.3,2.01-4.46,3.14-6.62,.44-.84,1.35-1.74,2.12-.44,2.7,4.51,5.2,9.1,4.55,14.69-.25,2.11-1.18,3.86-2.92,4.81-2.38,1.3-1.09,3.28-1.29,4.95-.1,.82,.88,.55,1.4,.56,2.38,.03,4.76-.07,7.14,.05,1.42,.07,1.75-.51,1.62-1.76-.08-.84-.08-1.7,0-2.54,.2-2.26-.04-4.13-2.27-5.6-2.36-1.56-2.55-4.31-2.25-6.9,.47-4.1,2.25-7.75,4.26-11.29,.68-1.21,1.6-1.68,2.45-.19,2.34,4.13,4.55,8.32,4.45,13.27-.04,2.14-.6,4.25-2.44,5.33-2.19,1.29-2.17,3.07-2.14,5.13,.07,4.53,.02,4.55,4.68,4.53,2.11-.01,4.88,.68,6.14-.37,1.34-1.13,.36-3.99,.4-6.09,.07-3.9,.01-7.81,.02-11.71,0-1,.23-1.92-1.43-1.99-1.36-.05-2.21-1.19-2.24-2.65-.04-2.54-.07-5.09,0-7.64,.04-1.78,1.24-2.72,2.85-2.54,2.68,.31,3.06-.94,2.86-3.18-.36-3.94,.72-7.37,4.03-9.87,3.29-2.48,6.88-2.81,10.51-1.12,3.65,1.7,5.71,4.66,5.87,8.79,.02,.51,.06,1.02,0,1.53-.26,2.39-.24,4.34,3.21,3.86,1.48-.21,2.5,1.02,2.54,2.6,.06,2.46,0,4.92,0,7.38,0,1.6-.83,2.73-2.31,2.86-1.35,.12-1.44,.67-1.43,1.74,.04,5.52,.07,11.03,0,16.55-.02,1.37,.25,1.96,1.78,1.89,2.63-.12,5.27-.09,7.9,0,1.25,.04,1.68-.35,1.56-1.58-.09-1.01-.1-2.04,0-3.05,.22-2.13-.26-3.7-2.14-5.16-3.24-2.52-2.7-6.17-1.88-9.62,.73-3.05,2.2-5.84,3.71-8.58,.76-1.39,1.74-1.77,2.59-.21,2.23,4.08,4.43,8.17,4.36,13.05-.04,2.47-.86,4.59-2.91,5.88-1.57,.99-1.74,2.18-1.71,3.79,.09,5.45,.05,5.45,5.59,5.45,.51,0,1.04,.09,1.53-.02,1.07-.25,2.83,.79,3.11-.63,.32-1.61,.83-3.47-1.29-4.93-3.96-2.74-3.41-6.82-2.36-10.82,.76-2.87,2.07-5.51,3.57-8.06,.72-1.23,1.6-1.72,2.43-.27,2.33,4.04,4.49,8.15,4.41,13.03-.04,2.74-.9,4.98-3.35,6.42-2.1,1.23-.89,3.19-1.02,4.83-.04,.52,.8,.45,1.29,.45,1.36,.01,2.72-.02,4.08,.02,.69,.02,1.5,.16,1.5,1.03,0,.94-.85,.91-1.52,.92-2.46,.01-4.93-.02-7.39-.02-12.07,0-24.13,0-36.2,0v.02Zm-21.26-20.15c.07-2.28-1.59-3.98-2.07-6.09-.1-.46-.51-.84-.78-1.26-.43,.37-1.01,.5-1.29,1.13-1.28,2.87-2.54,5.74-2.52,8.96,.01,1.8,.28,3.57,2.07,4.6,.93,1.21,1.89,.99,2.97,.16,2.03-1.56,2.61-4.12,1.62-7.49Zm21.34,18.34v-.02c2.89,0,5.78-.04,8.66,.02,1.2,.03,1.6-.36,1.59-1.6-.05-5.68-.04-11.37,.01-17.05,.01-1.18-.27-1.62-1.54-1.6-5.77,.06-11.55,.06-17.33,0-1.19-.01-1.61,.3-1.6,1.55,.06,5.68,.07,11.37,0,17.05-.02,1.42,.53,1.7,1.79,1.67,2.8-.07,5.61-.02,8.41-.02Zm.02-22.3h0c2.54-.01,5.08-.01,7.63-.01,6.72,0,6.65,0,6.57-6.65-.02-1.97-.76-2.4-2.58-2.37-6.35,.1-12.71-.04-19.06,.06-8.01,.14-6.16-1.26-6.51,6.82-.07,1.65,.64,2.21,2.26,2.18,3.9-.08,7.79-.03,11.69-.03Zm-.08-10.86s0,.02,0,.03c1.02,0,2.03,0,3.05,0,5.8,0,6.16-.44,5.21-6.27-.87-5.3-6.39-8.33-11.37-6.24-3.92,1.65-6.67,8.22-4.99,11.87,.39,.84,1.1,.61,1.74,.61,2.12,.01,4.24,0,6.36,0Zm24.63,6.68c-2.03,3.7-3.59,7.2-3.59,11.16,0,2.62,1.94,5.26,3.57,5.22,1.72-.04,3.49-2.62,3.52-5.25,.04-3.97-1.51-7.44-3.51-11.13ZM7.91,27.42c-.98,2.33-1.83,4.07-2.46,5.89-.78,2.25-1.21,4.59-.67,6.96,.4,1.72,1.32,3.3,3.27,3.37,1.88,.06,2.51-1.69,3.15-3.1,.33-.73,.4-1.66,.34-2.48-.27-3.66-1.53-7-3.64-10.64Zm74-.02c-1.94,3.88-3.59,7.27-3.44,11.25,.1,2.71,1.53,4.99,3.32,5.1,1.63,.09,3.36-2.36,3.5-4.95,.21-3.97-1.53-7.36-3.38-11.39Z"/>
      <path class="cls-3" d="M70.76,.17c.68,.2,2.04,.58,3.39,.99,.63,.19,1.04,.65,.8,1.32-.22,.63-.7,.8-1.41,.58-1.27-.39-2.58-.68-3.87-1-.66-.16-1.08-.54-.99-1.22,.1-.8,.77-.74,2.08-.67Z"/>
      <path class="cls-3" d="M19.65,0c.74,.07,1.52,.06,1.67,.91,.13,.7-.53,1-1.12,1.16-1.3,.36-2.62,.64-3.9,1.03-.74,.22-1.22-.07-1.41-.66-.22-.68,.26-1.1,.89-1.29,1.29-.39,2.58-.76,3.87-1.14Z"/>
      <path class="cls-3" d="M16.02,11.48c-.61,.04-1.02,.03-1.24-.44-.21-.43-.13-.82,.18-1.17,.11-.13,.23-.28,.38-.33,1.45-.56,2.72-1.79,4.45-1.25,.2,.06,.45,.69,.35,.84-1.01,1.51-2.94,1.41-4.11,2.35Z"/>
      <path class="cls-6" d="M75.33,10.45c-.11,.88-.63,1.21-1.4,.96-.86-.29-1.7-.67-2.51-1.09-.71-.37-2.15-.35-1.53-1.71,.57-1.25,1.66-.39,2.39-.11,1.12,.43,2.44,.69,3.05,1.95Z"/>
      <path class="cls-8" d="M9.34,18.91c-.75-.03-1.3-.31-1.22-.86,.17-1.16,.52-2.35,1.73-2.85,.52-.22,.99,.24,.99,.82-.01,1.25-.64,2.2-1.49,2.89Z"/>
      <path class="cls-8" d="M81.89,17.79c-.14,.75-.61,1.28-1.22,1.06-1.13-.42-1.4-1.58-1.64-2.63-.13-.57,.29-1.1,.83-1.01,1.43,.24,1.42,1.69,2.02,2.58Z"/>
      <path class="cls-8" d="M61.32,9.91c-.9,.06-1.59-.15-1.51-.82,.18-1.56,1.68-1.33,2.7-1.64,.67-.2,1.21,.51,1.12,1.02-.25,1.38-1.62,1.12-2.31,1.44Z"/>
      <path class="cls-3" d="M32.2,1.89c-.22,.89-.9,1.07-1.56,.73-.74-.39-2.1,0-2.12-1.36-.01-.83,.72-1.25,1.42-.92,.81,.38,2.21,.04,2.25,1.55Z"/>
      <path class="cls-8" d="M30.15,8.94c-.19,1.05-.88,1.08-1.55,.94-.93-.2-2.17-.16-2.32-1.41-.08-.62,.49-1.33,1.35-1,.93,.35,2.25,.17,2.53,1.47Z"/>
      <path class="cls-8" d="M59.02,2.78c-.91-.06-1.49-.35-1.34-1.07,.31-1.4,1.7-1.14,2.66-1.42,.52-.15,1.29,.4,1.14,1.04-.33,1.36-1.86,.82-2.46,1.45Z"/>
      <path class="cls-8" d="M9.13,6.97c-.68,.94-1.32,2.02-2.55,2.25-.56,.1-1.15-.56-.89-1.2,.42-1.02,1.16-1.92,2.3-2.16,.64-.14,1.04,.41,1.14,1.12Z"/>
      <path class="cls-8" d="M84.22,7.85c.02,.93-.4,1.56-.98,1.35-1.08-.39-2.1-1.1-2.34-2.35-.09-.47,.3-1.05,.89-.99,1.31,.15,1.82,1.27,2.43,1.99Z"/>
      <path class="cls-5" d="M44.9,50.45c-2.8,0-5.61-.05-8.41,.02-1.25,.03-1.81-.25-1.79-1.67,.07-5.68,.06-11.37,0-17.05-.01-1.25,.41-1.56,1.6-1.55,5.78,.06,11.55,.06,17.33,0,1.27-.01,1.55,.43,1.54,1.6-.06,5.68-.07,11.37-.01,17.05,.01,1.23-.39,1.62-1.59,1.6-2.89-.06-5.78-.02-8.66-.02v.02Z"/>
      <path class="cls-2" d="M44.91,28.15c-3.9,0-7.8-.06-11.69,.03-1.63,.03-2.34-.53-2.26-2.18,.35-8.08-1.5-6.68,6.51-6.82,6.35-.11,12.71,.03,19.06-.06,1.81-.03,2.55,.39,2.58,2.37,.08,6.65,.15,6.65-6.57,6.65-2.54,0-5.08,0-7.63,0h0Z"/>
      <path class="cls-1" d="M44.84,17.29c-2.12,0-4.24,0-6.36,0-.64,0-1.35,.23-1.74-.61-1.69-3.65,1.06-10.21,4.99-11.87,4.98-2.1,10.5,.93,11.37,6.24,.95,5.84,.59,6.27-5.21,6.27-1.02,0-2.03,0-3.05,0,0,0,0-.02,0-.03Z"/>
      <path class="cls-4" d="M69.46,23.97c2,3.69,3.55,7.16,3.51,11.13-.03,2.63-1.8,5.21-3.52,5.25-1.63,.04-3.57-2.61-3.57-5.22,0-3.96,1.56-7.46,3.59-11.16Z"/>
      <path class="cls-9" d="M7.91,27.42c2.11,3.64,3.37,6.98,3.64,10.64,.06,.82-.01,1.75-.34,2.48-.63,1.41-1.27,3.16-3.15,3.1-1.95-.06-2.88-1.64-3.27-3.37-.54-2.36-.12-4.71,.67-6.96,.63-1.82,1.48-3.56,2.46-5.89Z"/>
      <path class="cls-9" d="M81.91,27.4c1.85,4.03,3.59,7.42,3.38,11.39-.14,2.6-1.87,5.05-3.5,4.95-1.79-.1-3.22-2.38-3.32-5.1-.15-3.98,1.5-7.37,3.44-11.25Z"/>
      <path class="cls-4" d="M18.96,39.44c-1.79-1.04-2.06-2.8-2.07-4.6-.02-3.22,1.24-6.09,2.52-8.96,.28-.63,.86-.75,1.29-1.13,.27,.42,.68,.81,.78,1.26,.47,2.11,2.13,3.81,2.07,6.09-.03,.58,0,1.17-.09,1.74-.69,4.42-1.49,5.4-4.5,5.59Z"/>
      <path class="cls-7" d="M18.96,39.44c3.02-.19,3.81-1.17,4.5-5.59,.09-.57,.06-1.16,.09-1.74,.98,3.37,.41,5.93-1.62,7.49-1.08,.83-2.04,1.05-2.97-.16Z"/>
    </g>
  </g>
</svg>