<?xml version="1.0" encoding="UTF-8"?>
<svg id="Layer_2" data-name="Layer 2" xmlns="http://www.w3.org/2000/svg" viewBox="0 0 61.11 88.42">
  <defs>
    <style>
      .cls-1 {
        fill: #d69a3f;
      }

      .cls-2 {
        fill: #a9d8e3;
      }

      .cls-3 {
        fill: #57aebd;
      }

      .cls-4 {
        fill: #bf9a6a;
      }

      .cls-5 {
        fill: #162428;
      }

      .cls-6 {
        fill: #1e2321;
      }

      .cls-7 {
        fill: #2d2d2d;
      }

      .cls-8 {
        fill: #f8d6a2;
      }
    </style>
  </defs>
  <g id="Layer_1-2" data-name="Layer 1">
    <g>
      <path class="cls-2" d="M33.46,17.5c.12-.02,.24-.02,.36,.02,1.55,2.02,3.47,1.93,5.55,.98,2.01-.36,3.43,1.12,5.16,1.62,.14,1.98,2.7,3.63,4.78,3.08,1.51,1.11,2.44,2.96,4.45,3.42-1.42,.8-.77,1.58-.08,2.52,4.51,6.16,6.37,12.94,5.27,20.63-2.09,14.49-17.02,25.21-31.31,22.27-13.11-2.7-22.24-13.42-22.28-26.14-.05-14.54,11.23-26.47,25.79-27.32,.9-.05,2.05,.34,2.33-1.09Zm-11.8,44.49c0,2.4,1.21,3.86,3.4,4.48,2.35,.67,4.11-.24,5.38-2.25,1.16-1.84,2.55-1.95,3.59-.3,1.52,2.41,3.5,3.28,5.73,2.53,2.51-.85,3.52-2.63,3.18-5.62-.25-2.16,.65-2.89,2.77-2.25,2.34,.7,4.4,.34,5.83-1.8,1.27-1.9,.8-4.39-1.05-6.21-1.7-1.67-1.5-2.64,.75-3.64,2.22-.99,3.59-3.2,3.16-5.23-.53-2.48-2.24-3.72-4.66-3.98-2.65-.29-3.17-1.11-1.99-3.43,1.05-2.06,.57-4.55-1.15-5.99-1.64-1.38-4.29-1.32-6.08,.16-1.8,1.48-2.99,1.12-3.43-1.05-.52-2.55-2.32-4.15-4.7-4.17-2.41-.02-4.25,1.54-4.8,4.07-.5,2.31-1.61,2.72-3.37,1.25-1.82-1.53-4.38-1.66-6.09-.32-1.8,1.41-2.28,4.01-1.13,6.22,1.06,2.03,.47,3.13-1.75,3.27-2.62,.16-4.51,1.66-4.96,3.94-.42,2.13,.95,4.33,3.36,5.38,2.02,.88,2.19,1.92,.57,3.51-2,1.98-2.4,4.09-1.17,6.16,1.19,2,3.36,2.65,6.03,1.8,1.9-.6,2.9,.22,2.7,2.21-.04,.44-.07,.88-.11,1.28Z"/>
      <path class="cls-6" d="M33.46,17.5c-.28,1.42-1.42,1.03-2.33,1.09-14.56,.85-25.83,12.78-25.79,27.32,.04,12.72,9.17,23.44,22.28,26.14,14.29,2.95,29.23-7.77,31.31-22.27,1.11-7.69-.76-14.46-5.27-20.63-.69-.94-1.34-1.72,.08-2.52,4.53,4.23,6.65,9.67,7.2,15.63,1.14,12.4-3.75,21.92-14.44,28.38-1.06,.64-1.57,1.26-1.43,2.47,.08,.7,.02,1.41,.02,2.12,0,4.02,0,4.12,3.93,4.27,1.81,.07,1.91,.99,1.92,2.38,.04,4.51,.07,4.51,4.5,4.51,1.32,0,2.65,0,3.97,0,.72,0,1.53-.03,1.6,.93,.08,.98-.72,1.06-1.45,1.1-.44,.02-.88,.01-1.32,.01-17.31,0-34.62,0-51.92,0-.44,0-.88,0-1.32,0-.8,0-1.48-.26-1.38-1.17,.08-.73,.71-.88,1.4-.87,2.12,.02,4.24-.05,6.36,.03,1.31,.05,2.02-.27,1.76-1.72-.05-.26,0-.53,0-.79,0-4.12,0-4.17,4.1-4.31,1.24-.04,1.81-.36,1.67-1.65-.05-.43-.04-.89,0-1.32,.44-3.55-.59-5.81-3.87-8.13-7.86-5.56-11.62-13.67-11.54-23.41,.04-4.94-.01-9.88,.02-14.82,0-.99-.32-2.23,1.2-2.55,1.45,1.93,.14,4.22,.9,6.59,2.21-4.62,4.74-9.13,8.97-11.28,5.45-2.78,6.18-6.79,5.54-11.92-.12-.95-.09-1.94,0-2.9,.11-1.29-.21-1.89-1.7-1.85-3.78,.1-7.57,.1-11.35,0-1.47-.04-1.75,.55-1.75,1.84,0,1.35,.5,2.83-.59,4.04-1.95-.56-1.04-2.17-1.17-3.34-.14-1.28,.22-2.4-1.82-2.7C-.28,5.88-.05,3.82,.08,2.24,.21,.68,1.17,0,2.76,0c6.62,.03,13.25,.02,19.87,0,1.71,0,2.63,.8,2.73,2.5,.1,1.64,.16,3.49-1.92,3.74-1.6,.19-1.54,.97-1.52,2.09,.03,3.33,.01,6.66,.01,10.13,3.11-.74,5.88-1.67,8.82-1.61,.95,.02,1.97-.27,2.7,.65ZM23.24,2.78c.09-.36,.02-.63-.38-.74-6.76-.4-13.51-.37-20.27-.02-1.02,1.54-.8,2.37,1.24,2.36,5.92-.04,11.84-.01,17.76-.05,.61,0,1.5,.4,1.64-.74,0-.27,0-.54,0-.82Zm19.74,76.08v-6.36c-1.32,.47-2.3,.82-3.27,1.17-4.81,.73-9.61,.93-14.42-.03-1.46-.29-3.22-1.94-4.2-.85-.8,.88-.09,3.02-.26,4.58-.19,1.77,.44,2.25,2.19,2.22,5.99-.1,11.97-.02,17.96-.06,.69,0,1.65,.47,2.01-.66Zm-10.85,2.76c-5.03,0-10.06,.1-15.09-.05-2.25-.07-2.02,1.22-2.1,2.68-.09,1.52,.23,2.2,1.98,2.18,9.97-.08,19.94-.1,29.91,0,1.94,.02,2.06-.84,2.08-2.36,.03-1.66-.18-2.57-2.23-2.51-4.85,.15-9.7,.05-14.56,.05Z"/>
      <path class="cls-8" d="M4.71,12.22c1.1-1.21,.59-2.69,.59-4.04,0-1.29,.28-1.88,1.75-1.84,3.78,.1,7.57,.1,11.35,0,1.49-.04,1.81,.56,1.7,1.85-.08,.96-.11,1.94,0,2.9,.64,5.13-.09,9.14-5.54,11.92-4.23,2.16-6.76,6.66-8.97,11.28-.77-2.37,.55-4.66-.9-6.59-.71-1.63-.38-3.25,.01-4.87,1.01-1.87,.98-3.74,.04-5.63-.77-1.65-.49-3.31-.04-4.98Z"/>
      <path class="cls-7" d="M49.3,23.2c-2.07,.55-4.64-1.1-4.78-3.08,2.23,.04,4,.79,4.78,3.08Z"/>
      <path class="cls-6" d="M4.75,17.2c.94,1.88,.97,3.76-.04,5.63-2.33-1.47-.88-3.57-.92-5.42,.17,.04,.3-.02,.38-.18,.19,0,.39-.02,.58-.02Z"/>
      <path class="cls-5" d="M39.36,18.5c-2.08,.95-4,1.04-5.55-.98,2.08-.96,3.99-1.01,5.55,.98Z"/>
      <path class="cls-8" d="M4.17,17.22c-.08,.16-.21,.22-.38,.18,.03-.26,.12-.41,.38-.18Z"/>
      <path class="cls-5" d="M21.65,61.99c.03-.4,.06-.84,.11-1.28,.2-2-.8-2.82-2.7-2.21-2.67,.85-4.84,.2-6.03-1.8-1.23-2.07-.82-4.18,1.17-6.16,1.61-1.6,1.44-2.63-.57-3.51-2.4-1.05-3.77-3.25-3.36-5.38,.45-2.28,2.34-3.79,4.96-3.94,2.22-.13,2.81-1.23,1.75-3.27-1.15-2.2-.67-4.8,1.13-6.22,1.71-1.34,4.27-1.2,6.09,.32,1.76,1.48,2.87,1.07,3.37-1.25,.54-2.52,2.39-4.09,4.8-4.07,2.37,.02,4.18,1.62,4.7,4.17,.45,2.17,1.63,2.53,3.43,1.05,1.79-1.47,4.44-1.54,6.08-.16,1.72,1.45,2.2,3.94,1.15,5.99-1.18,2.32-.66,3.14,1.99,3.43,2.41,.26,4.12,1.5,4.66,3.98,.44,2.02-.93,4.23-3.16,5.23-2.25,1-2.44,1.97-.75,3.64,1.85,1.82,2.32,4.32,1.05,6.21-1.43,2.14-3.49,2.5-5.83,1.8-2.12-.63-3.02,.09-2.77,2.25,.34,2.99-.67,4.77-3.18,5.62-2.23,.76-4.21-.12-5.73-2.53-1.04-1.65-2.43-1.53-3.59,.3-1.27,2.01-3.04,2.92-5.38,2.25-2.19-.62-3.41-2.09-3.4-4.48Zm-7.35-7.76c.07,2.37,2.44,3.6,4.39,2.16,1.22-.9,1.93-.85,2.9,.14,.61,.62,1.34,1.14,2.06,1.65,.89,.62,1.08,1.28,.42,2.22-1.27,1.81-.62,3.34,1.17,4.08,1.81,.75,3.44,0,3.8-2.06,.48-2.75,2.49-1.22,3.78-1.44,1.03-.17,2.5-.71,2.79,1.35,.29,2.09,1.92,2.85,3.74,2.16,1.83-.69,2.49-2.27,1.24-4.05-.76-1.08-.57-1.69,.49-2.34,.75-.45,1.45-1.02,2.06-1.64,.89-.89,1.61-1.04,2.69-.14,1.45,1.19,3.06,1.04,4.06-.62,1.09-1.81,.34-3.19-1.5-4.05-2.82-1.31-.36-3.37-.68-5.05-.24-1.27,.7-1.59,1.86-1.54,2.04,.09,2.97-1.11,2.78-2.97-.2-1.94-1.61-2.87-3.41-2.27-3.34,1.11-2.68-2.25-4-3.36-1.26-1.05-.15-1.65,.61-2.45,1.18-1.25,1.19-2.81-.09-4-1.3-1.21-3-1.17-3.9,.35-1.74,2.93-3.53,.35-5.25,.25-1.6-.1-1.45-1.39-1.38-2.6,.11-1.85-.95-2.91-2.7-2.85-1.56,.05-2.91,1.06-2.56,2.72,.67,3.23-2.1,2.52-3.49,3.42-1.55,1.01-2.26,.2-3.15-1.03-1.09-1.49-2.62-1.37-3.92-.18-1.23,1.12-1.32,2.54-.16,3.74,.82,.86,1.98,1.54,.7,2.74-1.24,1.17-.78,4.4-4.06,3.21-1.51-.55-2.82,.28-3.27,1.89-.41,1.46,.25,3.19,1.57,3.14,3.88-.13,2.99,2.82,3.56,4.83,.26,.93,.02,1.63-1.12,1.96-1.25,.37-2.17,1.21-2.04,2.6Z"/>
      <path class="cls-3" d="M32.13,81.62c4.85,0,9.71,.1,14.56-.05,2.05-.06,2.26,.85,2.23,2.51-.03,1.52-.14,2.38-2.08,2.36-9.97-.09-19.94-.08-29.91,0-1.75,.01-2.06-.67-1.98-2.18,.08-1.46-.14-2.74,2.1-2.68,5.02,.15,10.06,.05,15.09,.04Z"/>
      <path class="cls-1" d="M39.71,73.67c.97-.35,1.95-.7,3.27-1.17,0,2.28,0,4.32,0,6.37-6.35,.03-12.69,.07-19.04,.07-.82,0-1.97,.3-2.12-.96-.15-1.29-.58-2.79,.17-3.87,.92-1.31,1.78,.34,2.7,.49,.35,.06,.7,.06,1.05,.06,4.06,.01,8.11,.03,12.17,.02,.75,0,1.68,.19,1.79-1.01Z"/>
      <path class="cls-1" d="M2.58,2.02c6.76-.34,13.51-.38,20.27,.02-.23,.1-.66,.27-.65,.29,.17,.51,.68,.3,1.03,.44,0,.27,0,.54,0,.82-5.79,.04-11.59,.1-17.38,.12-1.36,0-3.01,.46-3.26-1.7Z"/>
      <path class="cls-4" d="M39.71,73.67c-.11,1.2-1.04,1-1.79,1.01-4.06,.01-8.11,0-12.17-.02-.35,0-.71,0-1.05-.06-.93-.15-1.78-1.8-2.7-.49-.76,1.08-.33,2.58-.17,3.87,.15,1.26,1.31,.96,2.12,.96,6.35,0,12.69-.04,19.04-.07-.36,1.13-1.32,.66-2.01,.66-5.99,.04-11.98-.04-17.96,.06-1.75,.03-2.38-.45-2.19-2.22,.17-1.56-.54-3.7,.26-4.58,.99-1.09,2.74,.56,4.2,.85,4.81,.96,9.61,.76,14.42,.03Z"/>
      <path class="cls-4" d="M2.58,2.02c.26,2.15,1.9,1.7,3.26,1.7,5.79-.02,11.59-.08,17.38-.12-.14,1.14-1.03,.73-1.64,.74-5.92,.03-11.84,.01-17.76,.05-2.04,.01-2.26-.82-1.24-2.36Z"/>
      <path class="cls-4" d="M23.24,2.78c-.35-.14-.86,.07-1.03-.44,0-.02,.43-.19,.65-.29,.4,.1,.47,.38,.38,.74Z"/>
      <path class="cls-3" d="M14.31,54.22c-.13-1.39,.79-2.23,2.04-2.6,1.14-.34,1.38-1.03,1.12-1.96-.57-2.01,.31-4.96-3.56-4.83-1.32,.04-1.97-1.68-1.57-3.14,.45-1.61,1.76-2.43,3.27-1.89,3.28,1.19,2.81-2.05,4.06-3.21,1.28-1.2,.12-1.88-.7-2.74-1.15-1.2-1.06-2.62,.16-3.74,1.3-1.19,2.83-1.32,3.92,.18,.9,1.23,1.6,2.04,3.15,1.03,1.39-.91,4.17-.19,3.49-3.42-.35-1.66,1.01-2.67,2.56-2.72,1.75-.06,2.81,1,2.7,2.85-.07,1.2-.22,2.5,1.38,2.6,1.72,.1,3.51,2.68,5.25-.25,.9-1.52,2.6-1.56,3.9-.35,1.28,1.18,1.27,2.75,.09,4-.76,.8-1.86,1.4-.61,2.45,1.32,1.11,.66,4.46,4,3.36,1.8-.6,3.21,.33,3.41,2.27,.2,1.87-.74,3.06-2.78,2.97-1.15-.05-2.1,.27-1.86,1.54,.32,1.68-2.14,3.74,.68,5.05,1.84,.86,2.59,2.24,1.5,4.05-1,1.66-2.61,1.82-4.06,.62-1.08-.89-1.8-.75-2.69,.14-.62,.62-1.32,1.18-2.06,1.64-1.06,.64-1.25,1.26-.49,2.34,1.25,1.78,.6,3.36-1.24,4.05-1.81,.68-3.45-.08-3.74-2.16-.29-2.07-1.76-1.52-2.79-1.35-1.29,.22-3.3-1.31-3.78,1.44-.36,2.06-1.99,2.81-3.8,2.06-1.79-.74-2.44-2.27-1.17-4.08,.66-.93,.48-1.59-.42-2.22-.72-.5-1.45-1.02-2.06-1.65-.97-.99-1.69-1.03-2.9-.14-1.94,1.44-4.31,.21-4.39-2.16Zm27.93-8.34c-.8-2.63-1.33-5.29-3.06-6.99-1.73-1.7-4.29-2.86-6.78-2.89-2.49-.03-5.03,1.15-6.79,2.84-1.76,1.7-2.73,4.24-2.82,6.76-.18,5.01,4.57,9.77,9.64,9.5,2.48-.13,5.11-1.11,6.73-2.91,1.52-1.69,2.11-4.22,3.08-6.32Z"/>
      <path class="cls-6" d="M42.24,45.88c-.97,2.1-1.56,4.63-3.08,6.32-1.62,1.8-4.25,2.79-6.73,2.91-5.07,.26-9.82-4.49-9.64-9.5,.09-2.52,1.06-5.07,2.82-6.76,1.76-1.69,4.3-2.87,6.79-2.84,2.49,.03,5.05,1.18,6.78,2.89,1.73,1.7,2.26,4.35,3.06,6.99Zm-14.52-6.6c-.33,.87-2.21,.91-1.01,2.43,1.19,1.52,.73,2.43-1.08,2.67-.78,.11-1.04,.36-1.04,1.14,0,.92,.35,1.1,1.22,1.26,1.5,.28,2.27,1.17,.92,2.55-.7,.72-.43,1.12,.13,1.7,.58,.6,.98,.81,1.71,.14,1.37-1.26,2.27-.6,2.58,.94,.16,.77,.38,1.06,1.15,1.03,.71-.02,1.06-.16,1.22-.98,.28-1.5,1.18-2.34,2.53-1.04,.9,.86,1.27,.32,1.88-.2,.74-.64,.45-1.07-.1-1.68-1.12-1.25-.51-2.12,.86-2.44,.73-.17,1.31-.05,1.31-1.12,0-.92-.29-1.14-1.16-1.3-1.51-.28-2.22-1.18-.97-2.54,.64-.7,.56-1.11-.05-1.71-.55-.54-.94-.91-1.68-.16-1.35,1.37-2.25,.56-2.59-.86-.2-.84-.36-1.13-1.28-1.17-1.12-.05-.94,.59-1.13,1.28-.38,1.34-1.21,1.92-2.5,.85-.26-.22-.52-.45-.91-.78Z"/>
      <path class="cls-8" d="M27.72,39.28c.39,.33,.64,.56,.91,.78,1.29,1.07,2.12,.49,2.5-.85,.2-.69,.02-1.33,1.13-1.28,.92,.04,1.08,.32,1.28,1.17,.34,1.42,1.24,2.24,2.59,.86,.73-.75,1.12-.38,1.68,.16,.61,.59,.69,1.01,.05,1.71-1.25,1.36-.54,2.26,.97,2.54,.87,.16,1.16,.38,1.16,1.3,0,1.07-.58,.95-1.31,1.12-1.37,.32-1.98,1.2-.86,2.44,.55,.61,.84,1.03,.1,1.68-.6,.52-.97,1.07-1.88,.2-1.35-1.3-2.25-.46-2.53,1.04-.15,.82-.51,.96-1.22,.98-.78,.02-1-.26-1.15-1.03-.32-1.54-1.21-2.2-2.58-.94-.72,.67-1.13,.46-1.71-.14-.56-.58-.83-.98-.13-1.7,1.35-1.38,.58-2.26-.92-2.55-.86-.16-1.23-.34-1.22-1.26,0-.78,.26-1.04,1.04-1.14,1.81-.24,2.27-1.16,1.08-2.67-1.2-1.52,.68-1.56,1.01-2.43Zm1.38,6.01c.02,2.05,1.02,3.26,2.95,3.43,1.95,.18,3.17-.87,3.45-2.82,.26-1.86-1.16-3.5-3.02-3.53-1.99-.02-3.03,1.1-3.38,2.91Z"/>
      <path class="cls-6" d="M29.1,45.28c.35-1.81,1.39-2.93,3.38-2.91,1.86,.02,3.28,1.67,3.02,3.53-.28,1.94-1.5,2.99-3.45,2.82-1.93-.18-2.94-1.38-2.95-3.43Zm4.44,.39c-.03-.68-.26-1.22-1.03-1.29-.85-.07-1.35,.33-1.35,1.21,0,.74,.43,1.12,1.15,1.16,.73,.03,1.13-.37,1.24-1.08Z"/>
      <path class="cls-4" d="M33.54,45.68c-.11,.7-.51,1.11-1.24,1.08-.71-.03-1.15-.42-1.15-1.16,0-.87,.5-1.28,1.35-1.21,.77,.07,1,.6,1.03,1.29Z"/>
    </g>
  </g>
</svg>