<?xml version="1.0" encoding="UTF-8"?>
<svg id="Layer_2" data-name="Layer 2" xmlns="http://www.w3.org/2000/svg" viewBox="0 0 82.05 75.09">
  <defs>
    <style>
      .cls-1 {
        fill: #ca5d2c;
      }

      .cls-2 {
        fill: #ecedec;
      }

      .cls-3 {
        fill: #49b29c;
      }

      .cls-4 {
        fill: #384e5d;
      }

      .cls-5 {
        fill: #2f8bb1;
      }

      .cls-6 {
        fill: #bd432b;
      }
    </style>
  </defs>
  <g id="Layer_1-2" data-name="Layer 1">
    <g>
      <path class="cls-4" d="M44.05,4.82c10.72,.06,21.45,.12,32.17,.17,2.13,.01,4.38-.37,5.69,1.98,.01,14.79-.16,29.58,.13,44.37,.11,5.64-1.9,7.66-7.45,7.61-24.45-.19-48.9,0-73.35,.04-.83-.1-1.18-.61-1.23-1.39,0-16.83-.01-33.65-.02-50.48,.99-2.91,3.52-2.03,5.5-2.06,10.81-.16,21.63-.17,32.44-.24,2.04,0,4.08,0,6.12,0Zm-3.25,52.02c10.97,0,21.94-.12,32.91,.06,4.4,.07,6.36-1.45,6.3-6.04-.16-12.45-.15-24.9,0-37.35,.05-4.13-1.68-5.58-5.65-5.56-22.27,.09-44.54,.1-66.81,.01-4.09-.02-5.6,1.68-5.56,5.68,.13,12.45,.15,24.9,.02,37.35-.04,4.23,1.59,5.96,5.88,5.9,10.97-.16,21.94-.05,32.91-.05Z"/>
      <path class="cls-1" d="M54.49,59.03c2.23,0,4.45-.01,6.68-.02,.52,.14,1.04,.29,1.56,.43,2.01,3.21,3.9,6.5,6.06,9.61,1.32,1.9,1.83,3.82-.03,5.26-2.22,1.71-4.07,.29-5.38-1.68-3-4.51-5.92-9.06-8.88-13.6Z"/>
      <path class="cls-1" d="M20.06,58.99c2.57,.07,5.13,.15,7.7,.22-2.98,4.32-6,8.62-8.91,12.98-1.42,2.13-3.28,3.89-5.63,2.27-2.01-1.39-1.13-3.51,.07-5.61,1.86-3.26,4.85-5.82,5.89-9.56,.31-.07,.6-.17,.88-.3Z"/>
      <path class="cls-6" d="M37.97,59.21c1.98,0,3.95,.01,5.93,.02,.03,2.63,.06,5.26,.1,7.89,.03,2.22-1.44,2.82-3.24,2.77-1.68-.04-2.74-.92-2.73-2.79,.02-2.63-.03-5.26-.05-7.9Z"/>
      <path class="cls-1" d="M44.05,4.82c-2.04,0-4.08,0-6.12,0C38.2,2.74,37.2,0,41.02,0c3.85,0,2.76,2.76,3.04,4.82Z"/>
      <path class="cls-2" d="M40.8,56.84c-10.97,0-21.94-.11-32.91,.05-4.29,.06-5.93-1.67-5.88-5.9,.12-12.45,.11-24.9-.02-37.35-.04-4.01,1.46-5.7,5.56-5.68,22.27,.09,44.54,.07,66.81-.01,3.97-.02,5.7,1.43,5.65,5.56-.15,12.45-.16,24.9,0,37.35,.06,4.59-1.9,6.11-6.3,6.04-10.97-.17-21.94-.06-32.91-.06ZM12.01,32.86c0,4.3,.1,8.61-.03,12.9-.1,3.08,1.51,4.14,4.24,4.17,2.73,.03,4.95-.49,4.92-4.01-.07-8.6-.11-17.21,0-25.81,.04-3.51-1.97-4.09-4.78-4.08-3,0-4.56,1.08-4.38,4.43,.23,4.12,.06,8.27,.05,12.41Zm38.97,3.44h-.04c0-3.49-.11-6.98,.03-10.46,.15-3.55-2.48-3.53-4.66-3.52-1.99,.02-4.37,.03-4.29,3.36,.15,6.64,.1,13.28-.03,19.92-.06,3,1.32,4.26,4.16,4.26,2.77,0,4.96-.6,4.85-4.1-.1-3.15-.02-6.31-.02-9.46Zm-14.9,1.6h.03c0-2.66-.1-5.32,.02-7.97,.14-3.17-1.6-4-4.35-3.96-2.74,.04-4.96,.4-4.86,4.01,.14,5.15,.16,10.3-.01,15.45-.12,3.63,1.81,4.66,4.93,4.6,3.05-.06,4.56-1.41,4.29-4.66-.2-2.47-.04-4.98-.04-7.47Zm25.81,7.01c-1.43-.17-1.89,.67-1.88,2.07,0,1.56,.88,1.93,2.24,1.91,1.27-.02,1.69-.66,1.72-1.85,.04-1.4-.41-2.24-2.08-2.13Zm.26-9.94c-1.38-.08-2.02,.53-2.12,1.96-.11,1.51,.53,1.99,1.94,2.02,1.4,.03,2.1-.39,2.04-1.91-.05-1.28-.21-2.29-1.86-2.07Zm-.06,8.87c1.48,.1,1.98-.67,1.96-2.05-.01-1.45-.67-1.98-2.08-1.95-1.42,.03-2.06,.66-2.04,2.06,.02,1.43,.81,2,2.16,1.95Z"/>
      <path class="cls-5" d="M12.02,32.86c0-4.14,.18-8.28-.05-12.41-.19-3.34,1.37-4.42,4.38-4.43,2.81,0,4.83,.57,4.78,4.08-.11,8.6-.07,17.21,0,25.81,.03,3.52-2.18,4.04-4.92,4.01-2.73-.03-4.34-1.09-4.24-4.17,.14-4.3,.03-8.6,.04-12.9Z"/>
      <path class="cls-6" d="M50.98,36.3c0,3.15-.08,6.31,.02,9.46,.12,3.5-2.08,4.1-4.85,4.1-2.83,0-4.21-1.26-4.16-4.26,.13-6.64,.18-13.28,.03-19.92-.08-3.33,2.3-3.34,4.29-3.36,2.18-.02,4.8-.03,4.66,3.52-.14,3.48-.03,6.97-.03,10.46h.04Z"/>
      <path class="cls-3" d="M36.07,37.91c0,2.49-.16,5,.04,7.47,.27,3.25-1.24,4.6-4.29,4.66-3.12,.06-5.05-.98-4.93-4.6,.17-5.14,.15-10.3,.01-15.45-.09-3.61,2.12-3.97,4.86-4.01,2.75-.04,4.5,.79,4.35,3.96-.12,2.65-.02,5.31-.02,7.97h-.03Z"/>
      <path class="cls-5" d="M61.88,44.91c1.67-.11,2.11,.74,2.08,2.13-.03,1.19-.45,1.83-1.72,1.85-1.35,.02-2.23-.35-2.24-1.91,0-1.4,.45-2.24,1.88-2.07Z"/>
      <path class="cls-6" d="M62.13,34.98c1.65-.22,1.81,.79,1.86,2.07,.06,1.52-.64,1.94-2.04,1.91-1.41-.03-2.05-.5-1.94-2.02,.1-1.43,.75-2.04,2.12-1.96Z"/>
      <path class="cls-3" d="M62.07,43.85c-1.35,.05-2.14-.51-2.16-1.95-.02-1.39,.63-2.02,2.04-2.06,1.41-.03,2.07,.5,2.08,1.95,.01,1.39-.48,2.15-1.96,2.05Z"/>
    </g>
  </g>
</svg>