<?xml version="1.0" encoding="UTF-8"?>
<svg id="Layer_2" data-name="Layer 2" xmlns="http://www.w3.org/2000/svg" viewBox="0 0 83.36 82.38">
  <defs>
    <style>
      .cls-1 {
        fill: #ca5d2c;
      }

      .cls-2 {
        fill: #57aebd;
      }
    </style>
  </defs>
  <g id="Layer_1-2" data-name="Layer 1">
    <path class="cls-1" d="M38.59,.47c-.8,2.08-1.08,2.93-1.59,4.68-.32,1.08-.78,2.98-1.02,4.22s-.46,2.27-.47,2.29-.66,.2-1.42,.39c-1.95,.51-4.15,1.3-5.66,2.07l-1.29,.64-.41-.44c-1.14-1.2-4.86-4.24-7.64-6.2l-1.12-.81-1.68,1.27c-.92,.69-2.12,1.68-2.68,2.19l-1.02,.93,.56,1.64c.73,2.15,2.15,5.32,3.41,7.53l.98,1.76-1.37,2.05c-.76,1.14-1.75,2.85-2.22,3.85l-.83,1.78h-4.08c-4.42-.02-7.2,.15-7.61,.46-.24,.19-1.12,4.1-1.34,6l-.09,.71,1.14,.66c2.34,1.39,6,3.12,8.86,4.17,.9,.34,.88,.29,1.07,2.71,.12,1.44,.58,3.88,1,5.27,.15,.46,.27,.93,.27,1.03,0,.09-.51,.54-1.14,1.02-1.68,1.2-4.49,3.64-6.2,5.36l-1.48,1.49,.78,1.54c.42,.86,1.19,2.24,1.7,3.05,.8,1.27,1,1.49,1.3,1.42,.2-.03,1.07-.19,1.9-.34,2.08-.37,5.61-1.3,7.63-2.02l1.66-.59,1.83,1.75c1.02,.97,2.58,2.27,3.46,2.9,1.02,.73,1.59,1.24,1.54,1.37-.05,.12-.32,1.36-.59,2.73-.58,2.8-1.03,6.24-1.03,7.7v.98l.97,.44c.53,.24,1.95,.8,3.17,1.22l2.19,.8,.83-.92c1.34-1.49,3.69-4.75,4.98-6.9,.95-1.56,1.29-1.98,1.54-1.93,.17,.03,2.2,.07,4.51,.09l4.2,.03,1.07,2.02c1.22,2.36,2.58,4.56,3.93,6.46,.53,.73,.97,1.36,1,1.39,.07,.07,3.2-.95,4.97-1.61l1.56-.61v-2.46l-4.85-6.66c-2.66-3.68-4.97-6.8-5.1-6.95-.22-.27-.32-.25-1.46,.03-4.34,1.12-9.75,.75-14.05-.97-6.63-2.61-11.86-8.17-13.92-14.73-.86-2.78-1.05-4.03-1.03-7.29,.02-4.36,.54-6.61,2.44-10.51,1.22-2.47,2.66-4.41,4.76-6.44,3.51-3.37,7.73-5.47,12.49-6.27,2.15-.36,6.68-.27,8.68,.17,7.07,1.56,13.17,6.32,16.29,12.71,1.61,3.32,2.17,5.69,2.31,9.61,.07,2.2,.03,3.2-.19,4.58-.34,2.02-1.2,4.71-2.05,6.46-.58,1.17-.59,1.2-.29,1.54,11.44,12.88,11.32,12.76,12.15,12.97,.61,.15,.85,.15,1.03,0,.29-.24,1.75-2.59,2.75-4.42l.71-1.3-1.3-1.56c-1.59-1.9-4.24-4.54-5.93-5.95-.88-.75-1.22-1.12-1.15-1.3,.49-1.25,1.24-5.34,1.49-8.03,.03-.47,.14-.51,2.75-1.37,4.34-1.44,8.22-3.17,8.22-3.68,0-.56-.36-2.95-.71-4.76l-.36-1.81-.86-.19c-2.59-.53-9.19-1.14-10.64-.98-.46,.05-.53-.02-.97-1.05-.63-1.51-1.58-3.19-2.85-5.07-.59-.86-1.07-1.61-1.07-1.63,0-.03,.54-.9,1.2-1.9,.64-1,1.93-3.31,2.83-5.12l1.64-3.29-1.27-1.17c-.69-.64-1.9-1.68-2.66-2.27l-1.39-1.1-1.41,.8c-2.07,1.17-4.66,2.95-6.7,4.58l-1.8,1.46-1.46-.69c-1.97-.93-3.53-1.51-5.36-1.97l-1.53-.39-.39-2.68c-.36-2.47-1.73-8.59-1.98-8.85-.05-.07-1.63-.14-3.47-.17l-3.39-.07-.19,.47Z"/>
    <path class="cls-2" d="M41.93,29.93c-.8,.31-1.54,.83-1.54,1.08,0,.1,1.64,2.15,3.64,4.54,2,2.39,3.85,4.66,4.12,5.03,.53,.78,.59,1.58,.2,2.37-.24,.47-4.88,4.39-5.92,4.98-.54,.31-1.64,.25-2.22-.1-.27-.17-2.22-2.53-4.32-5.24-2.1-2.71-3.86-4.93-3.93-4.93-.07-.02-.41,.25-.75,.61-1.14,1.12-1.59,2.75-1.25,4.41,.19,.83,.69,1.7,3.68,6.15,1.92,2.85,3.71,5.42,4,5.73,1.12,1.17,3.31,1.81,4.81,1.41,.63-.17,1.24-.54,2.73-1.66l.51-.39,9.46,13.02c5.2,7.15,9.75,13.31,10.1,13.68,1.22,1.34,3.22,1.95,4.39,1.36,.59-.31,5.42-4.19,5.95-4.76,.69-.8,.69-2.71-.02-4.1-.17-.36-5.15-6.05-11.03-12.66-5.9-6.63-10.85-12.17-11-12.34-.25-.31-.24-.36,.24-.75,1.34-1.1,1.85-1.7,2.24-2.54,.56-1.2,.51-2.91-.1-4.19-.59-1.19-9.09-9.8-10.27-10.39-1.05-.54-2.73-.68-3.71-.32Zm27.7,41.15c.44,.24,.97,.69,1.27,1.12,.68,.98,.73,2.47,.1,3.47-1.12,1.81-3.46,2.15-5.05,.75-.75-.64-1.07-1.39-1.07-2.39s.24-1.58,.9-2.29c1.05-1.1,2.49-1.34,3.85-.66Z"/>
  </g>
</svg>