<?xml version="1.0" encoding="UTF-8"?>
<svg id="Layer_2" data-name="Layer 2" xmlns="http://www.w3.org/2000/svg" viewBox="0 0 62.93 83.44">
  <defs>
    <style>
      .cls-1 {
        fill: #ca5d2c;
      }

      .cls-2 {
        fill: #92c97f;
      }

      .cls-3 {
        fill: #918e8d;
      }

      .cls-4 {
        fill: #19373a;
      }

      .cls-5 {
        fill: #4faf4b;
      }

      .cls-6 {
        fill: #fcfcfc;
      }
    </style>
  </defs>
  <g id="Layer_1-2" data-name="Layer 1">
    <g>
      <path class="cls-6" d="M47.44,83.44h-3.47s0-.05,0-.08c.04-.24-.06-.47-.06-.71,0-2.65-.02-5.3,.01-7.96,0-.92,.42-1.67,1.29-2.08,.71-.33,1.44-.64,2.15-.97,.63-.28,1.25-.58,1.87-.86,.15-.07,.25-.14,.26-.32,.03-.67,.08-1.35,.12-2.02,.03-.56,.05-1.13,.08-1.69,.07-1.15,.15-2.3,.22-3.44,.06-1.05,.12-2.1,.18-3.15,.02-.37,.04-.75,.05-1.12,0-.23-.14-.39-.35-.42-.18-.03-.37-.06-.56-.06-11.86,0-23.72,0-35.58,0-.19,0-.37,.04-.56,.06-.19,.03-.32,.15-.32,.36,0,.19,0,.38,0,.56,.04,.75,.09,1.5,.14,2.25,.03,.55,.06,1.1,.09,1.65,.04,.75,.09,1.5,.14,2.25,.04,.73,.05,1.45,.11,2.18,.06,.81,.12,1.62,.14,2.43,0,.28,.12,.43,.36,.54,1.13,.5,2.26,1.01,3.38,1.52,.31,.14,.64,.24,.91,.45,.63,.48,.94,1.13,.94,1.92,0,2.54,0,5.08,0,7.62,0,.34-.01,.67-.07,1.01,0,.03-.01,.06-.02,.09h-3.4s0-.05,0-.07c.15-.03,.3-.04,.44-.09,.54-.17,.97-.47,1.15-1.04,.07-.23,.1-.46,.1-.7,0-1.17,0-2.34,0-3.51,0-.82,.01-1.63,0-2.45-.01-.84-.4-1.46-1.16-1.83-.61-.29-1.23-.56-1.84-.84-.87-.39-1.73-.78-2.6-1.17-.16-.07-.25-.17-.26-.36-.02-.46-.07-.92-.1-1.38-.04-.59-.07-1.18-.11-1.76-.06-.85-.13-1.69-.19-2.54-.04-.59-.07-1.17-.11-1.76-.06-.84-.13-1.67-.19-2.51-.05-.65-.11-1.29-.14-1.94-.02-.4-.07-.8,0-1.2,.27-1.48,1.68-2.26,2.77-2.25,12.14,.01,24.27,0,36.41,0,.25,0,.5,.02,.74,.09,1.27,.36,2.14,1.47,2.06,2.79-.05,.81-.14,1.62-.19,2.43-.07,1.07-.15,2.14-.22,3.22-.08,1.07-.15,2.15-.23,3.22-.09,1.16-.16,2.32-.23,3.48-.01,.24-.08,.44-.34,.5-.05,.01-.09,.04-.14,.06-1.41,.64-2.83,1.27-4.23,1.92-.76,.35-1.15,.98-1.16,1.79-.03,2.02-.02,4.05,0,6.07,0,.5,.15,.96,.55,1.31,.34,.29,.75,.38,1.17,.46,0,.02,0,.04,0,.07Z"/>
      <path class="cls-3" d="M43.97,83.37s0,.05,0,.08H18.91s.01-.06,.02-.09c.15,0,.3,.01,.45,.01,8.2,0,16.39,0,24.59,0Z"/>
      <path class="cls-3" d="M15.52,83.37s0,.05,0,.07h-5.89s-.01-.04,0-.07c1.97,0,3.93,0,5.9,0Z"/>
      <path class="cls-3" d="M47.44,83.44s-.01-.04,0-.07c1.97,0,3.93,0,5.9,0,0,.02,0,.05,0,.07h-5.89Z"/>
      <path class="cls-4" d="M53.33,83.37c-1.97,0-3.93,0-5.9,0-.42-.07-.83-.17-1.17-.46-.4-.35-.55-.81-.55-1.31,0-2.02-.02-4.05,0-6.07,.01-.81,.41-1.44,1.16-1.79,1.41-.65,2.82-1.28,4.23-1.92,.05-.02,.09-.05,.14-.06,.27-.06,.33-.26,.34-.5,.07-1.16,.14-2.32,.23-3.48,.08-1.07,.15-2.15,.23-3.22,.08-1.07,.16-2.14,.22-3.22,.05-.81,.15-1.62,.19-2.43,.07-1.32-.79-2.43-2.06-2.79-.24-.07-.49-.09-.74-.09-12.14,0-24.27,0-36.41,0-1.09,0-2.5,.78-2.77,2.25-.07,.4-.02,.8,0,1.2,.03,.65,.09,1.3,.14,1.94,.06,.84,.13,1.67,.19,2.51,.04,.59,.07,1.17,.11,1.76,.06,.85,.13,1.69,.19,2.54,.04,.59,.07,1.18,.11,1.76,.03,.46,.08,.92,.1,1.38,0,.19,.1,.29,.26,.36,.87,.39,1.73,.78,2.6,1.17,.61,.28,1.23,.55,1.84,.84,.76,.37,1.14,.99,1.16,1.83,.01,.82,0,1.63,0,2.45,0,1.17,0,2.34,0,3.51,0,.24-.02,.47-.1,.7-.18,.57-.6,.87-1.15,1.04-.14,.04-.29,.06-.44,.09-1.97,0-3.93,0-5.9,0-.58-.09-1.15-.18-1.72-.37-.53-.18-.92-.54-1.32-.9-.71-.63-1.42-1.26-2.12-1.91-1.22-1.14-2.44-2.28-3.43-3.63-.24-.32-.46-.66-.64-1.02-.19-.36-.29-.75-.33-1.14-.09-.85-.06-1.69,.02-2.54,.14-1.36,.51-2.67,.76-4.01,.28-1.5,.56-3,.84-4.5,.29-1.55,.59-3.09,.88-4.64,.29-1.52,.58-3.05,.87-4.57,.29-1.55,.59-3.09,.89-4.64,.14-.74,.29-1.47,.4-2.21,.08-.51,.32-.91,.67-1.27,.83-.86,1.82-1.49,2.93-1.92,1.33-.51,2.66-1.02,3.99-1.53,2.41-.93,4.83-1.86,7.24-2.79,.63-.24,1.26-.49,1.89-.72,.25-.09,.25-.09,.35,.14,.93,2.05,1.86,4.1,2.79,6.15,.83,1.82,1.66,3.65,2.49,5.47,.36,.79,.72,1.59,1.09,2.38,.13-.04,.08-.13,.09-.19,.13-1.41,.26-2.81,.38-4.22,.07-.78,.12-1.57,.18-2.36,.05-.62,.09-1.25,.16-1.87,.03-.23-.03-.44-.07-.66-.17-1.06-.4-2.11-.51-3.18-.04-.36,.22-.67,.57-.61,.26,.05,.53,.04,.79,.04,.62,0,1.23,.1,1.84,.06,.79-.06,1.58,0,2.36-.1,.34-.04,.62,.21,.59,.56-.04,.59-.17,1.16-.26,1.74-.1,.6-.22,1.2-.33,1.81-.07,.38,.03,.75,.06,1.12,.12,1.57,.26,3.14,.4,4.71,.09,1.05,.2,2.11,.3,3.24,.13-.26,.23-.46,.32-.66,.85-1.87,1.7-3.74,2.54-5.61,.83-1.82,1.65-3.65,2.48-5.47,.36-.79,.72-1.57,1.08-2.36,.11-.23,.11-.23,.36-.14,1.47,.56,2.94,1.13,4.41,1.69,2.94,1.13,5.87,2.26,8.81,3.4,1.14,.44,2.13,1.11,2.96,2.01,.28,.31,.46,.67,.54,1.09,.23,1.32,.49,2.63,.74,3.94,.3,1.57,.59,3.14,.89,4.71,.34,1.79,.69,3.58,1.03,5.38,.37,1.95,.73,3.91,1.1,5.86,.25,1.29,.54,2.57,.78,3.86,.18,1,.24,2.01,.19,3.03-.05,.94-.43,1.74-.98,2.48-.47,.64-.98,1.23-1.54,1.8-1.36,1.4-2.83,2.67-4.26,3.98-.67,.61-1.44,.86-2.29,1-.17,.03-.34,.05-.52,.08Z"/>
      <path class="cls-5" d="M36.12,14.26c.55-1.5,1.01-3.04,1.44-4.58,.47-1.71,.85-3.44,1.18-5.19,.06-.34,.09-.69,.19-1.04,.26,.08,.43,.27,.63,.41,2.41,1.88,4.12,4.25,5.09,7.15,.33,.99,.55,2,.62,3.04,.02,.31,.1,.6,.37,.79,.47,.34,.67,.84,.75,1.38,.16,1.08,.19,2.17,.16,3.26,0,.09-.03,.17-.05,.26-.08,.3-.1,.31-.41,.31-1.09,0-2.19,0-3.28,0-.31,0-.52,.07-.66,.37-.2,.4-.52,.57-1,.57-6.44-.02-12.88-.02-19.32,0-.48,0-.8-.17-1-.57-.15-.29-.35-.38-.66-.37-1.09,.02-2.19,0-3.28,0-.32,0-.36-.03-.43-.34-.03-.12-.03-.25-.03-.37-.01-.92,0-1.83,.1-2.74,.04-.39,.1-.77,.28-1.12,.09-.18,.19-.35,.35-.47,.37-.27,.51-.65,.55-1.1,.25-2.58,1.19-4.89,2.71-6.99,.91-1.26,2-2.34,3.24-3.27,.09-.07,.19-.13,.28-.18,.02-.01,.05,0,.09,0,.11,.61,.21,1.22,.33,1.82,.45,2.33,1.04,4.63,1.75,6.9,.2,.63,.4,1.26,.63,1.88,.03,.07,.02,.15,.1,.19,0,.02-.01,.05-.01,.07,0,.05,0,.12,.05,.12,.08,0,.05-.09,.04-.14,0-.02-.02-.05-.03-.07,0-.04,0-.08,0-.12,.03-.05,0-.08-.04-.1-.14-1.01-.28-2.03-.42-3.04-.18-1.26-.39-2.52-.56-3.78-.14-1.04-.29-2.08-.37-3.13-.05-.61-.15-1.22-.04-1.83,.04-.25,.09-.49,.23-.71,.11-.19,.25-.34,.46-.42,1.26-.54,2.57-.89,3.93-1.04,.79-.08,1.58-.1,2.37-.04,1.51,.11,2.96,.47,4.34,1.08,.37,.16,.52,.49,.62,.85,.14,.52,.09,1.05,.06,1.57-.04,.72-.14,1.44-.22,2.16-.13,1.15-.3,2.3-.48,3.45-.19,1.28-.39,2.57-.57,3.85-.06,.42-.15,.84-.15,1.26-.09,.07-.11,.15-.04,.25,.07-.07,.12-.15,.11-.26Z"/>
      <path class="cls-1" d="M18.99,21.6c.05,0,.1,0,.15,0,.39-.05,.69,.07,.95,.38,.33,.37,.77,.53,1.28,.53,6.73,0,13.46,0,20.19,0,.52,0,.97-.18,1.31-.56,.25-.28,.52-.4,.89-.36,.26,.03,.53,0,.79,0,.15,0,.2,.07,.17,.21-.29,1.7-.57,3.4-1.11,5.05-.08,.24-.19,.43-.43,.52-.02,0-.05,.02-.07,.03-.53,.31-.52,.31-.7,.89-.43,1.44-1.09,2.77-1.88,4.04-.67,1.07-1.43,2.05-2.3,2.96-.97,1.03-2.06,1.9-3.31,2.56-.43,.23-.9,.3-1.37,.37-.72,.1-1.45,.16-2.17,.14-.93-.02-1.87-.07-2.79-.28-.22-.05-.42-.15-.62-.26-.93-.48-1.77-1.09-2.53-1.8-1.67-1.55-2.99-3.38-4-5.42-.41-.82-.75-1.67-.99-2.55-.06-.23-.15-.41-.39-.5-.52-.19-.72-.61-.87-1.12-.43-1.46-.69-2.95-.95-4.44,0-.05,0-.1,0-.15-.02-.25-.02-.25,.22-.26,.18,0,.35,0,.53,0Z"/>
      <path class="cls-3" d="M36.12,14.26c0,.1-.04,.19-.11,.26-.07-.1-.05-.18,.04-.25,.02,0,.05,0,.07,0Z"/>
      <path class="cls-3" d="M26.89,14.25s.02,.04,.03,.07c0,.05,.04,.13-.04,.14-.05,0-.05-.07-.05-.12,0-.02,0-.05,.01-.07l.02-.03h.03Z"/>
      <path class="cls-3" d="M26.85,14.03s.07,.05,.04,.1c-.04-.02-.05-.06-.04-.1Z"/>
      <path class="cls-2" d="M43.97,83.37c-8.2,0-16.39,0-24.59,0-.15,0-.3,0-.45-.01,.06-.33,.07-.67,.07-1.01,0-2.54,0-5.08,0-7.62,0-.78-.31-1.43-.94-1.92-.27-.21-.6-.31-.91-.45-1.12-.52-2.25-1.02-3.38-1.52-.25-.11-.36-.26-.36-.54-.02-.81-.08-1.62-.14-2.43-.06-.72-.07-1.45-.11-2.18-.04-.75-.09-1.5-.14-2.25-.03-.55-.06-1.1-.09-1.65-.04-.75-.09-1.5-.14-2.25-.01-.19-.02-.38,0-.56,0-.2,.13-.33,.32-.36,.18-.02,.37-.06,.56-.06,11.86,0,23.72,0,35.58,0,.19,0,.37,.03,.56,.06,.22,.03,.35,.19,.35,.42,0,.38-.03,.75-.05,1.12-.06,1.05-.11,2.1-.18,3.15-.07,1.15-.15,2.3-.22,3.44-.03,.56-.05,1.13-.08,1.69-.04,.67-.09,1.35-.12,2.02,0,.18-.11,.26-.26,.32-.63,.28-1.25,.58-1.87,.86-.72,.33-1.44,.64-2.15,.97-.88,.41-1.28,1.16-1.29,2.08-.03,2.65,0,5.3-.01,7.96,0,.24,.1,.47,.06,.71Z"/>
    </g>
  </g>
</svg>