<?xml version="1.0" encoding="UTF-8"?>
<svg id="Layer_2" data-name="Layer 2" xmlns="http://www.w3.org/2000/svg" viewBox="0 0 80.86 80.41">
  <defs>
    <style>
      .cls-1 {
        fill: #ca5d2c;
      }

      .cls-2 {
        fill: #57aebd;
      }

      .cls-3 {
        fill: #49b29c;
      }

      .cls-4 {
        fill: #fffefe;
      }
    </style>
  </defs>
  <g id="Layer_1-2" data-name="Layer 1">
    <path class="cls-4" d="M0,0H80.86V80.41H0V0ZM40.18,49.26c.2,.16,.32,.23,.42,.33,2.99,2.99,5.99,5.99,8.98,8.97,.16,.16,.24,.29,.17,.55-.7,2.34-.8,4.71-.31,7.11,.6,2.91,1.93,5.43,4.06,7.5,3.81,3.72,9.01,5.06,14.15,3.68,.84-.22,1.65-.52,2.43-.9,.65-.32,.78-1.07,.31-1.62-.08-.09-.17-.18-.26-.27-2.93-2.93-5.86-5.86-8.79-8.79-.85-.85-1.21-1.86-1.04-3.05,.25-1.76,1.82-3.14,3.82-2.97,.91,.08,1.67,.48,2.31,1.13,2.91,2.93,5.85,5.83,8.75,8.78,.62,.63,1.53,.61,1.94-.36,.65-1.54,1.11-3.12,1.25-4.78,.24-2.9-.3-5.65-1.68-8.22-3.23-6.02-10.19-9.09-17-7.12-.3,.09-.47,.03-.68-.18-2.99-3-5.98-5.99-8.97-8.98-.32-.32-.23-.32-.56,0-2.97,2.97-5.93,5.93-8.9,8.9-.09,.09-.2,.15-.39,.29Zm.08-19.03c-.09-.07-.21-.14-.3-.24-2.69-2.69-5.38-5.38-8.08-8.07-.15-.15-.24-.26-.17-.51,.67-2.21,.8-4.46,.4-6.74-.52-2.92-1.76-5.5-3.85-7.61-3.85-3.89-8.5-5.22-13.86-4.12-1.02,.21-2,.57-2.95,1.01-.39,.18-.62,.47-.64,.9-.02,.36,.16,.64,.41,.89,2.98,2.97,5.95,5.95,8.92,8.93,.85,.85,1.2,1.86,1.04,3.05-.25,1.76-1.82,3.14-3.82,2.96-.91-.08-1.67-.48-2.31-1.13-2.91-2.92-5.82-5.83-8.74-8.74-.09-.09-.17-.18-.27-.26-.5-.4-1.2-.27-1.53,.29-.06,.1-.1,.2-.15,.3-.7,1.52-1.12,3.12-1.26,4.78-.24,2.9,.3,5.65,1.68,8.22,3.27,6.11,10.28,9.05,17,7.12,.28-.08,.45-.05,.65,.16,2.68,2.69,5.36,5.37,8.04,8.05,.1,.1,.17,.22,.23,.3,3.2-3.2,6.34-6.34,9.54-9.54Zm18.79-3.98c.25,.25,.47,.48,.69,.7,.44,.45,.97,.75,1.56,.95,.51,.17,1.01,.19,1.5-.04,.19-.09,.38-.1,.59-.08,.38,.04,.73,.19,1.06,.37,.61,.31,1.16,.7,1.71,1.1,1.16,.86,2.23,1.83,3.35,2.74,.07,.06,.19,.09,.2,.24-.24,.23-.5,.47-.74,.73-1.21,1.3-.65,3.44,1.05,3.97,.96,.29,1.81,.06,2.52-.65,1.86-1.85,3.72-3.71,5.57-5.56,.09-.09,.18-.18,.26-.28,.56-.7,.7-1.49,.42-2.34-.55-1.67-2.68-2.2-3.96-1-.34,.32-.65,.66-1,1.03-.34-.49-.66-.94-.96-1.4-.32-.47-.61-.95-.84-1.47-.11-.26-.18-.52-.12-.8,.09-.39,.03-.78-.05-1.16-.19-.87-.55-1.67-.99-2.43-1.48-2.59-3.23-4.95-5.43-6.99-2.69-2.48-5.49-4.82-8.61-6.76-2.47-1.54-5.07-2.8-7.9-3.54-2.4-.62-4.82-.83-7.27-.35-.79,.15-1.56,.37-2.3,.7-.12,.06-.25,.13-.35,.22-.18,.15-.17,.3,.02,.43,.08,.06,.18,.1,.27,.13,.34,.12,.7,.2,1.06,.26,1.97,.34,3.9,.83,5.76,1.59,1.86,.76,3.59,1.74,5.04,3.15,1.19,1.16,2.09,2.51,2.46,4.15,.34,1.49,.21,2.92-.71,4.21-.21,.29-.28,.62-.24,.97,.06,.7,.4,1.26,.89,1.74q.25,.25,0,.51c-.05,.05-.11,.11-.16,.16-7.14,7.14-14.28,14.28-21.42,21.42-.1,.1-.23,.2-.31,.35,.34,.23,.66,.46,.94,.75,1.18,1.19,2.36,2.37,3.54,3.54,.27,.27,.49,.59,.74,.91,7.39-7.39,14.76-14.77,22.17-22.18Zm-29.65,18.44c-.59,0-1.11,.19-1.55,.58-.39,.35-.79,.7-1.18,1.06-6.93,6.21-13.86,12.43-20.79,18.64-.88,.79-1.76,1.58-2.64,2.36-.51,.46-.75,1.03-.68,1.71,.05,.53,.32,.94,.69,1.3,2.18,2.17,4.36,4.35,6.53,6.52,.04,.04,.09,.09,.13,.13,.5,.45,1.09,.6,1.75,.47,.5-.1,.87-.42,1.2-.79,6.05-6.76,12.1-13.51,18.16-20.26,1.25-1.39,2.5-2.78,3.75-4.18,.84-.95,.81-2.3-.08-3.2-1.22-1.23-2.45-2.45-3.68-3.68-.45-.45-.99-.66-1.62-.67Z"/>
    <path class="cls-2" d="M40.18,49.26c.19-.14,.3-.2,.39-.29,2.97-2.96,5.93-5.93,8.9-8.9,.33-.33,.24-.33,.56,0,2.99,2.99,5.99,5.98,8.97,8.98,.21,.21,.38,.27,.68,.18,6.81-1.97,13.77,1.1,17,7.12,1.38,2.57,1.91,5.32,1.68,8.22-.14,1.66-.6,3.25-1.25,4.78-.41,.96-1.32,.99-1.94,.36-2.9-2.95-5.84-5.85-8.75-8.78-.65-.65-1.4-1.05-2.31-1.13-2-.18-3.57,1.2-3.82,2.97-.17,1.19,.19,2.2,1.04,3.05,2.93,2.93,5.86,5.86,8.79,8.79,.09,.09,.18,.17,.26,.27,.47,.55,.34,1.29-.31,1.62-.78,.39-1.59,.68-2.43,.9-5.14,1.38-10.35,.04-14.15-3.68-2.12-2.07-3.46-4.59-4.06-7.5-.49-2.39-.39-4.77,.31-7.11,.08-.25,0-.38-.17-.55-3-2.99-5.99-5.98-8.98-8.97-.1-.1-.22-.17-.42-.33Z"/>
    <path class="cls-2" d="M40.26,30.23c-3.21,3.21-6.35,6.35-9.54,9.54-.06-.08-.13-.21-.23-.3-2.68-2.68-5.37-5.36-8.04-8.05-.21-.21-.38-.24-.65-.16-6.72,1.93-13.74-1.02-17-7.12-1.38-2.57-1.91-5.32-1.68-8.22,.14-1.66,.56-3.26,1.26-4.78,.05-.1,.09-.21,.15-.3,.32-.55,1.02-.68,1.53-.29,.1,.08,.18,.17,.27,.26,2.91,2.91,5.83,5.82,8.74,8.74,.65,.65,1.4,1.05,2.31,1.13,2,.18,3.57-1.2,3.82-2.96,.17-1.19-.19-2.2-1.04-3.05-2.97-2.98-5.95-5.95-8.92-8.93-.25-.25-.43-.53-.41-.89,.03-.43,.26-.72,.64-.9,.95-.44,1.92-.8,2.95-1.01,5.35-1.1,10,.23,13.86,4.12,2.09,2.11,3.33,4.68,3.85,7.61,.4,2.28,.27,4.53-.4,6.74-.07,.25,.02,.36,.17,.51,2.69,2.69,5.38,5.38,8.08,8.07,.1,.1,.22,.17,.3,.24Z"/>
    <path class="cls-3" d="M59.05,26.25c-7.41,7.41-14.78,14.78-22.17,22.18-.25-.32-.46-.64-.74-.91-1.19-1.18-2.37-2.36-3.54-3.54-.28-.28-.6-.52-.94-.75,.09-.16,.21-.25,.31-.35,7.14-7.14,14.28-14.28,21.42-21.42,.05-.05,.11-.11,.16-.16q.26-.26,0-.51c-.49-.48-.83-1.04-.89-1.74-.03-.35,.04-.68,.24-.97,.92-1.29,1.05-2.71,.71-4.21-.37-1.65-1.27-2.99-2.46-4.15-1.45-1.42-3.18-2.4-5.04-3.15-1.86-.75-3.79-1.24-5.76-1.59-.36-.06-.71-.14-1.06-.26-.09-.03-.19-.08-.27-.13-.19-.13-.2-.28-.02-.43,.1-.09,.23-.16,.35-.22,.73-.34,1.51-.55,2.3-.7,2.45-.48,4.87-.28,7.27,.35,2.83,.74,5.43,2,7.9,3.54,3.12,1.94,5.92,4.27,8.61,6.76,2.2,2.03,3.96,4.4,5.43,6.99,.44,.76,.8,1.56,.99,2.43,.08,.38,.14,.77,.05,1.16-.07,.28,0,.55,.12,.8,.22,.52,.52,1,.84,1.47,.31,.46,.62,.91,.96,1.4,.35-.36,.67-.71,1-1.03,1.28-1.21,3.41-.67,3.96,1,.28,.85,.13,1.64-.42,2.34-.08,.1-.17,.19-.26,.28-1.86,1.86-3.71,3.71-5.57,5.56-.71,.71-1.56,.94-2.52,.65-1.7-.52-2.27-2.66-1.05-3.97,.24-.26,.5-.49,.74-.73-.01-.15-.13-.18-.2-.24-1.12-.91-2.19-1.88-3.35-2.74-.55-.4-1.1-.79-1.71-1.1-.34-.17-.68-.32-1.06-.37-.2-.02-.4,0-.59,.08-.5,.23-1,.21-1.5,.04-.59-.2-1.12-.51-1.56-.95-.22-.22-.44-.45-.69-.7Z"/>
    <path class="cls-1" d="M29.4,44.69c.63,0,1.18,.22,1.62,.67,1.23,1.23,2.45,2.45,3.68,3.68,.89,.9,.92,2.25,.08,3.2-1.25,1.4-2.5,2.79-3.75,4.18-6.05,6.75-12.11,13.51-18.16,20.26-.34,.37-.7,.69-1.2,.79-.66,.13-1.25-.02-1.75-.47-.05-.04-.09-.09-.13-.13-2.18-2.17-4.35-4.35-6.53-6.52-.37-.37-.64-.77-.69-1.3-.07-.69,.17-1.26,.68-1.71,.88-.79,1.76-1.58,2.64-2.36,6.93-6.21,13.86-12.43,20.79-18.64,.39-.35,.79-.7,1.18-1.06,.44-.39,.96-.58,1.55-.58Z"/>
  </g>
</svg>